<?xml version="1.0" encoding="UTF-8"?>
<svg id="Layer_2" data-name="Layer 2" xmlns="http://www.w3.org/2000/svg" viewBox="0 0 186.89 171.57">
  <defs>
    <style>
      .cls-1 {
        fill: #231f20;
      }
    </style>
  </defs>
  <g>
    <path class="cls-1" d="m55.28,116.22V50.5h24.3s-7.56,36.85,56.15,47.99V19.03h24.03v97.18s-55.34,6.09-81.26-19.28l1.08,19.93h-24.3"/>
    <path class="cls-1" d="m159.76,150.5H15.65V17.25h103.46v63.79h0c-12.8,0-23.18-9.75-23.18-21.79v-20.22h-57.1v89.67h120.93v21.79Z"/>
  </g>
  <g>
    <path class="cls-1" d="m55.28,116.22V50.5h24.3s-7.56,36.85,56.15,47.99V19.03h24.03v97.18s-55.34,6.09-81.26-19.28l1.08,19.93h-24.3"/>
    <path class="cls-1" d="m159.76,150.5H15.65V17.25h103.46v63.79h0c-12.8,0-23.18-9.75-23.18-21.79v-20.22h-57.1v89.67h120.93v21.79Z"/>
  </g>
  <g>
    <path class="cls-1" d="m55.28,116.22V50.5h24.3s-7.56,36.85,56.15,47.99V19.03h24.03v97.18s-55.34,6.09-81.26-19.28l1.08,19.93h-24.3"/>
    <path class="cls-1" d="m159.76,150.5H15.65V17.25h103.46v63.79h0c-12.8,0-23.18-9.75-23.18-21.79v-20.22h-57.1v89.67h120.93v21.79Z"/>
  </g>
</svg>